<?xml version="1.0" encoding="iso-8859-1"?>
<!-- Generator: Adobe Illustrator 19.0.0, SVG Export Plug-In . SVG Version: 6.00 Build 0)  -->
<svg version="1.1" id="Layer_1" xmlns="http://www.w3.org/2000/svg" xmlns:xlink="http://www.w3.org/1999/xlink" x="0px" y="0px"
	 viewBox="0 0 512 512" style="enable-background:new 0 0 512 512;" xml:space="preserve">
<g>
	<g>
		<path d="M512,257.778c0-30.585-19.174-57.485-46.686-68.286c0.013-0.571,0.02-1.143,0.02-1.714c0-43.01-34.99-78-78-78
			c-2.398,0-4.787,0.11-7.163,0.327c-16.865-34.231-51.676-56.326-90.837-56.326c-51.428,0-94.03,38.511-100.485,88.209
			c-62.49,0.951-113.035,52.072-113.035,114.785c0,2.313,0.069,4.626,0.208,6.933c-18.283,4.264-35.006,13.696-48.329,27.471
			C9.835,309.643,0,333.965,0,359.661c0,54.347,44.215,98.561,98.561,98.561h265.344c45.389,0,82.316-36.927,82.316-82.316
			c0-16.378-4.9-31.814-13.376-44.795h5.82C479.102,331.112,512,298.214,512,257.778z M363.906,423.556H98.561
			c-35.231,0-63.894-28.664-63.894-63.895c0-34.547,27.032-62.584,61.541-63.831l20.925-0.756l-4.65-20.415
			c-1.329-5.834-2.003-11.851-2.003-17.887c0-44.19,35.951-80.14,80.14-80.14c35.147,0,65.864,22.497,76.435,55.982l5.183,16.415
			l16.451-5.068c5.052-1.557,10.318-2.346,15.652-2.346c29.26,0,53.064,23.804,53.064,53.064c0,4.271-0.52,8.55-1.545,12.72
			l-4.599,18.704l19.083,2.609c23.494,3.211,41.212,23.501,41.212,47.194C411.556,402.181,390.18,423.556,363.906,423.556z
			 M392.031,296.444c0.013-0.588,0.039-1.178,0.039-1.766c0-48.375-39.356-87.731-87.731-87.731c-3.344,0-6.674,0.19-9.977,0.564
			c-7.993-16.879-19.98-31.512-35.233-42.87c-10.967-8.167-23.082-14.203-35.908-17.989c4.172-32.779,32.218-58.209,66.112-58.209
			c29.238,0.001,54.791,18.715,63.584,46.569l5.183,16.414l16.449-5.067c4.127-1.271,8.427-1.916,12.784-1.916
			c23.895,0,43.333,19.439,43.333,43.333c0,3.486-0.425,6.982-1.263,10.392l-4.598,18.703l19.083,2.609
			c19.067,2.607,33.445,19.07,33.445,38.297c0,21.321-17.346,38.666-38.667,38.666H392.031z"/>
	</g>
</g>
<g>
</g>
<g>
</g>
<g>
</g>
<g>
</g>
<g>
</g>
<g>
</g>
<g>
</g>
<g>
</g>
<g>
</g>
<g>
</g>
<g>
</g>
<g>
</g>
<g>
</g>
<g>
</g>
<g>
</g>
</svg>
