<?xml version="1.0" encoding="iso-8859-1"?>
<!-- Generator: Adobe Illustrator 19.0.0, SVG Export Plug-In . SVG Version: 6.00 Build 0)  -->
<svg version="1.1" id="Layer_1" xmlns="http://www.w3.org/2000/svg" xmlns:xlink="http://www.w3.org/1999/xlink" x="0px" y="0px"
	 viewBox="0 0 501.702 501.702" style="enable-background:new 0 0 501.702 501.702;" xml:space="preserve">
<g>
	<g>
		<path d="M447.774,0H53.928C26.784,0,4.697,23.981,4.697,53.462v292.394c0,29.471,22.087,53.452,49.231,53.452h63.88l0.817,102.394
			l140.553-102.394h188.596c27.144,0,49.231-23.981,49.231-53.452V53.462C497.005,23.981,474.918,0,447.774,0z M477.312,345.856
			c0,18.615-13.25,33.76-29.538,33.76h-195.01L138.01,463.221l-0.663-83.606H53.928c-16.288,0-29.538-15.144-29.538-33.76V53.462
			c0-18.625,13.25-33.769,29.538-33.769h393.846c16.288,0,29.538,15.144,29.538,33.769V345.856z"/>
	</g>
</g>
<g>
	<g>
		<rect x="83.466" y="106.044" width="334.769" height="19.692"/>
	</g>
</g>
<g>
	<g>
		<rect x="83.466" y="191.439" width="334.769" height="19.692"/>
	</g>
</g>
<g>
	<g>
		<rect x="132.697" y="276.845" width="236.308" height="19.692"/>
	</g>
</g>
<g>
</g>
<g>
</g>
<g>
</g>
<g>
</g>
<g>
</g>
<g>
</g>
<g>
</g>
<g>
</g>
<g>
</g>
<g>
</g>
<g>
</g>
<g>
</g>
<g>
</g>
<g>
</g>
<g>
</g>
</svg>
