<?xml version="1.0" encoding="iso-8859-1"?>
<!-- Generator: Adobe Illustrator 19.0.0, SVG Export Plug-In . SVG Version: 6.00 Build 0)  -->
<svg version="1.1" id="Layer_1" xmlns="http://www.w3.org/2000/svg" xmlns:xlink="http://www.w3.org/1999/xlink" x="0px" y="0px"
	 viewBox="0 0 512 512" style="enable-background:new 0 0 512 512;" xml:space="preserve">
<g transform="translate(1 1)">
	<g>
		<g>
			<path d="M408.6,16.067h-76.8C331.8,6.68,324.12-1,314.733-1H195.267C185.88-1,178.2,6.68,178.2,16.067h-76.8
				c-14.507,0-25.6,11.093-25.6,25.6V485.4c0,14.507,11.093,25.6,25.6,25.6h307.2c14.507,0,25.6-11.093,25.6-25.6V41.667
				C434.2,27.16,423.107,16.067,408.6,16.067z M195.267,84.333h119.467c9.387,0,17.067-7.68,17.067-17.067H383V459.8H127V67.267
				h51.2C178.2,76.653,185.88,84.333,195.267,84.333z M195.267,16.067h119.467V24.6v34.133v8.533H195.267v-8.533V24.6V16.067z
				 M417.133,485.4c0,5.12-3.413,8.533-8.533,8.533H101.4c-5.12,0-8.533-3.413-8.533-8.533V41.667c0-5.12,3.413-8.533,8.533-8.533
				h76.8V50.2H127c-9.387,0-17.067,7.68-17.067,17.067V459.8c0,9.387,7.68,17.067,17.067,17.067h256
				c9.387,0,17.067-7.68,17.067-17.067V67.267c0-9.387-7.68-17.067-17.067-17.067h-51.2V33.133h76.8c5.12,0,8.533,3.413,8.533,8.533
				V485.4z"/>
			<path d="M144.067,118.467v51.2c0,5.12,3.413,8.533,8.533,8.533h85.333c5.12,0,8.533-3.413,8.533-8.533v-51.2
				c0-5.12-3.413-8.533-8.533-8.533H152.6C147.48,109.933,144.067,113.347,144.067,118.467z M161.133,127H229.4v34.133h-68.267V127z
				"/>
			<path d="M144.067,220.867c0,5.12,3.413,8.533,8.533,8.533h110.933c5.12,0,8.533-3.413,8.533-8.533s-3.413-8.533-8.533-8.533
				H152.6C147.48,212.333,144.067,215.747,144.067,220.867z"/>
			<path d="M152.6,263.533h93.867c5.12,0,8.533-3.413,8.533-8.533s-3.413-8.533-8.533-8.533H152.6c-5.12,0-8.533,3.413-8.533,8.533
				S147.48,263.533,152.6,263.533z"/>
			<path d="M152.6,297.667h85.333c5.12,0,8.533-3.413,8.533-8.533s-3.413-8.533-8.533-8.533H152.6c-5.12,0-8.533,3.413-8.533,8.533
				S147.48,297.667,152.6,297.667z"/>
			<path d="M307.427,293.614c0.219,0.339,0.467,0.656,0.728,0.963c1.701,2.295,4.135,3.09,6.578,3.09c2.56,0,5.12-0.853,6.827-3.413
				l42.667-59.733c3.413-4.267,1.707-9.387-1.707-11.947c-4.267-3.413-9.387-1.707-11.947,1.707l-36.006,50.409L295.96,249.88
				c-2.56-3.413-8.533-4.267-11.947-1.707c-3.413,2.56-4.267,8.533-1.707,11.947L307.427,293.614z"/>
			<path d="M263.533,331.8H152.6c-5.12,0-8.533,3.413-8.533,8.533c0,5.12,3.413,8.533,8.533,8.533h110.933
				c5.12,0,8.533-3.413,8.533-8.533C272.067,335.213,268.653,331.8,263.533,331.8z"/>
			<path d="M246.467,365.933H152.6c-5.12,0-8.533,3.413-8.533,8.533S147.48,383,152.6,383h93.867c5.12,0,8.533-3.413,8.533-8.533
				S251.587,365.933,246.467,365.933z"/>
			<path d="M237.933,400.067H152.6c-5.12,0-8.533,3.413-8.533,8.533s3.413,8.533,8.533,8.533h85.333c5.12,0,8.533-3.413,8.533-8.533
				S243.053,400.067,237.933,400.067z"/>
			<path d="M307.427,413.081c0.219,0.339,0.467,0.656,0.728,0.963c1.701,2.295,4.135,3.09,6.578,3.09c2.56,0,5.12-0.853,6.827-3.413
				l42.667-59.733c3.413-4.267,1.707-9.387-1.707-11.947c-4.267-3.413-9.387-1.707-11.947,1.707l-36.006,50.409l-18.607-24.809
				c-2.56-3.413-8.533-4.267-11.947-1.707c-3.413,2.56-4.267,8.533-1.707,11.947L307.427,413.081z"/>
		</g>
	</g>
</g>
<g>
</g>
<g>
</g>
<g>
</g>
<g>
</g>
<g>
</g>
<g>
</g>
<g>
</g>
<g>
</g>
<g>
</g>
<g>
</g>
<g>
</g>
<g>
</g>
<g>
</g>
<g>
</g>
<g>
</g>
</svg>
